<svg xmlns="http://www.w3.org/2000/svg" viewBox="0 0 249.38 280.32"><defs><style>.cls-1,.cls-2{fill:none;stroke-miterlimit:10;}.cls-1{stroke:#000;stroke-width:3.67px;}.cls-2{stroke:#fff;stroke-width:18.37px;}.cls-3{fill:#fff;}.cls-4{fill:#1d1d1b;}</style></defs><g id="Layer_2" data-name="Layer 2"><g id="Layer_1-2" data-name="Layer 1"><circle class="cls-1" cx="123.18" cy="142.97" r="115.75"/><path class="cls-2" d="M25.85,205.15c-5.85,3-12.17.88-15.24-5.17s-1-12.39,4.82-15.36,12.21-.9,15.28,5.16S31.71,202.18,25.85,205.15Zm-2-3.86c3.9-2,5.32-6,3.42-9.79s-6-5-9.91-3-5.29,6-3.39,9.77S20,203.26,23.89,201.29Z"/><path class="cls-2" d="M39.63,205.26l-10.5,8.56a4.71,4.71,0,0,0-1.82,2.82A4.68,4.68,0,0,0,31.64,222a4.67,4.67,0,0,0,3.13-1.22l10.5-8.56,2.66,3.26-10.22,8.33a9.08,9.08,0,0,1-5.49,2.39,8.86,8.86,0,0,1-6.86-3.5,8.84,8.84,0,0,1-2-7.43,9.13,9.13,0,0,1,3.43-4.89L37,202Z"/><path class="cls-2" d="M53.4,225.07,41.5,238.51l-3.15-2.79,11.9-13.44-3.63-3.22,2.4-2.71,10.41,9.22L57,228.28Z"/><path class="cls-2" d="M74.64,239.38l-6.26-3.64L66,239.91l5.87,3.41L70,246.45,64.14,243l-4.78,8.22-3.64-2.12L66.56,230.5l9.9,5.75Z"/><path class="cls-2" d="M95.4,255.09c-2.2,6.19-8.22,9-14.62,6.73s-9.27-8.28-7.06-14.46,8.24-9.05,14.63-6.76S97.61,248.91,95.4,255.09Zm-4.08-1.45c1.47-4.11-.29-8-4.25-9.45s-7.8.51-9.27,4.62.3,8,4.26,9.42S89.86,257.75,91.32,253.64Z"/><path class="cls-2" d="M107.64,245.92c3,.43,4.34,1.41,5.21,2.39a6.1,6.1,0,0,1,1.42,5.1,5.87,5.87,0,0,1-3.22,4.67,5.77,5.77,0,0,1-2.47.59l5.37,10-5.19-.75-4.46-9.4-.51-.07L102.55,267l-4.16-.6L101.46,245Zm-3.43,9.54,1.18.17c.8.12,4.12.5,4.57-2.64s-2.81-3.67-3.58-3.78l-1.24-.18Z"/><path class="cls-2" d="M131.06,246.81c3-.3,5.63-.24,8.19,1.29a10.69,10.69,0,0,1,5,8.24,10.28,10.28,0,0,1-3.43,9.09c-2.34,2-4.66,2.55-7.65,2.85l-5.53.56-2.17-21.46Zm.39,18,1.28-.13a9.06,9.06,0,0,0,5.11-1.95,7,7,0,0,0,2.09-6,7.2,7.2,0,0,0-3.22-5.46,8.8,8.8,0,0,0-5.42-.88l-1.28.13Z"/><path class="cls-2" d="M158.14,245.1l-7.48,2.07,1.28,4.64,7.17-2,1,3.49-7.17,2,1.57,5.67,7.48-2.07,1,3.49-11.53,3.19-5.75-20.79,11.53-3.19Z"/><path class="cls-2" d="M163.86,238.83l7,16.51,6.13-2.62,1.42,3.33-10,4.27L160,240.48Z"/><path class="cls-2" d="M175.47,233,186,251.89l-3.68,2L171.8,235.08Z"/><path class="cls-2" d="M180.71,230,194,238.13l-4-15.06,3.68-2.74,5.57,22.74-2,1.51L177,232.69Z"/><path class="cls-2" d="M205.23,213.08l-5.38,5.59,3.47,3.34,5.16-5.36,2.61,2.52-5.16,5.35,4.24,4.08,5.38-5.58,2.61,2.51-8.3,8.61-15.53-15,8.3-8.61Z"/><path class="cls-2" d="M208.07,203.25c1.71-2.44,3.22-3.23,4.49-3.57a6.11,6.11,0,0,1,5.19,1,5.91,5.91,0,0,1,2.71,5,6.12,6.12,0,0,1-.59,2.47l11.3-.28-3,4.29-10.41-.28-.29.43,7.09,5-2.42,3.44-17.65-12.41Zm7,7.37.69-1c.47-.66,2.3-3.44-.29-5.26s-4.54.84-5,1.47l-.72,1Z"/><path class="cls-2" d="M226.39,195.62l-13.77,1.53,2.18-4.48,8.77-.87-4.71-7.44,2.18-4.48,7.19,12,8.87,4.33-1.85,3.77Z"/><path class="cls-2" d="M72.94,32.76a4.24,4.24,0,0,0-4-.07c-2,1-2,2.61-1.52,3.59a1.84,1.84,0,0,0,1.25,1,7.52,7.52,0,0,0,2.87-.06,12.48,12.48,0,0,1,4.87,0,5.91,5.91,0,0,1,3.68,3.22c1.88,3.76.45,7.7-3.53,9.7a8.89,8.89,0,0,1-8.48-.31l1.29-3.57a5.06,5.06,0,0,0,5.33.54c1.71-.86,2.46-2.53,1.64-4.15a2.46,2.46,0,0,0-1.62-1.36,9.58,9.58,0,0,0-3.68.08,10.48,10.48,0,0,1-4-.07,5,5,0,0,1-3.33-2.82c-1.42-2.83-.93-6.62,3.34-8.76a8.33,8.33,0,0,1,6.6-.49Z"/><path class="cls-2" d="M86.29,26.31l5.7,17-4,1.33-5.7-17-4.6,1.54-1.15-3.44,13.18-4.41,1.15,3.43Z"/><path class="cls-2" d="M109,34.91l-8.57,1.47-1.12,4.78-4.49.77,5.5-22.83,3.25-.55,12.54,19.73-4.46.77Zm-1.79-3.18-4.34-7.13-1.71,8.17Z"/><path class="cls-2" d="M127.9,27.15l9.89.31v.26c-.05,1.45-.38,6-3.44,8.82A11.87,11.87,0,0,1,118.86,36a11.55,11.55,0,0,1-2.94-8.41,11,11,0,0,1,3.41-7.91,11.51,11.51,0,0,1,8.6-3,10.49,10.49,0,0,1,4.95,1.28A10.26,10.26,0,0,1,136.79,22l-3.71,1.86a5.82,5.82,0,0,0-2.44-2.63,7.31,7.31,0,0,0-8,1,8.06,8.06,0,0,0-2.35,5.63,7.31,7.31,0,0,0,2,5.52,6.66,6.66,0,0,0,4.72,2,7.25,7.25,0,0,0,4.28-1.17,5.72,5.72,0,0,0,2.13-3.23l-5.55-.17Z"/><path class="cls-2" d="M155.79,24.88l-7.58-1.66-1,4.7,7.26,1.6-.77,3.54-7.27-1.6-1.26,5.75,7.58,1.66-.78,3.54-11.69-2.57,4.63-21.06,11.69,2.56Z"/><path class="cls-2" d="M167.92,31c2-3.37,5.63-4.09,9-2.51,3.74,1.77,5.11,5,3.56,8.27a4.87,4.87,0,0,1-4.19,3,5.21,5.21,0,0,1,.77,6.06c-1.9,4-6.06,4.78-9.92,2.95s-5.59-5.48-4.14-9.37l3.8,1.8a3.4,3.4,0,0,0,1.92,4.31,3.4,3.4,0,1,0,2.8-6.19l-.5-.23,1.31-2.75.52.25a2.76,2.76,0,0,0,3.92-1.39,2.67,2.67,0,0,0-1.35-3.79,2.86,2.86,0,0,0-3.89,1.26Z"/><circle class="cls-3" cx="123.18" cy="142.97" r="81.82"/><path class="cls-4" d="M123.18,64.65A78.32,78.32,0,1,1,44.87,143a78.4,78.4,0,0,1,78.31-78.32m0-7A85.32,85.32,0,1,0,208.5,143a85.32,85.32,0,0,0-85.32-85.32Z"/><path d="M128.48,141.47a3.88,3.88,0,1,0-3.88-3.88A3.88,3.88,0,0,0,128.48,141.47Z"/><path d="M117.28,158.78h.35v-6h-.35v-1.9h2.23v1.9h-.37v6h.93v-1.85H121v3.74h-3.73Z"/><path d="M121.16,158.78h.3l.74-6h-.32v-1.9h2.82v1.9h-.32l.75,6h.29v1.89h-2V159h.34l-.15-1.44h-1l-.17,1.44h.33v1.66h-1.56Zm2.25-2.65-.32-3.18h0l-.35,3.18Z"/><path d="M125.74,158.78h.38v-6h-.38v-1.9h2.64c1.24,0,1.72,1.39,1.72,3.32,0,1.39-.28,3-1.56,3h-.9v1.58H128v1.89h-2.29Zm2.31-3.89c.31,0,.46-.37.46-1s-.12-1.06-.5-1.06h-.37v2.11Z"/><path d="M130.46,158.78h.3v-6h-.3V150.9h1.87a1.63,1.63,0,0,1,1.6.8,9.33,9.33,0,0,1,.11,8.14,1.62,1.62,0,0,1-1.71.83h-1.87Zm2,0c.55,0,.77-1,.77-3,0-2.18-.22-3-.77-3h-.23v6Z"/><polygon points="134.9 123.78 142.4 120.87 140.8 117.54 133.85 121.58 134.9 123.78"/><polygon points="118.35 121.58 111.4 117.54 109.8 120.87 117.3 123.78 118.35 121.58"/><polygon points="123.95 117.16 121.05 109.66 117.72 111.26 121.76 118.21 123.95 117.16"/><polygon points="134.48 111.26 131.15 109.66 128.24 117.16 130.44 118.21 134.48 111.26"/><path d="M86.08,166.62h2.41a11.29,11.29,0,0,0,22.34,0h34.43a11.29,11.29,0,0,0,22.35,0h1.78a1.59,1.59,0,0,0,.43-.06l7.84-2a1.76,1.76,0,0,0,1.32-1.71V152.66a1.76,1.76,0,0,0-3.52,0v8.82l-1.52.39v-4.54h-2.77v-5.28h2.76a5.3,5.3,0,0,0-4.06-5l-17.24-4.22s-9.84-8.11-13-10.73c-3.37-2.82-5.49-4.07-8.85-4.4l-.52-4.47a1.14,1.14,0,0,0-1.1-1H123a1.14,1.14,0,0,0-1.1,1l-.51,4.36h-9.66a10.54,10.54,0,0,0-6.74,2.12c-4.68,3-13.84,9.74-17.86,12.41l-3.48.62a5.2,5.2,0,0,0-4.21,5.08v4.31h7.28v2.35H69.21a1.83,1.83,0,1,0,0,3.66H82.57v2.52H76.29a1.8,1.8,0,0,0-1.83,1.83,1.83,1.83,0,0,0,1.83,1.83h6.87l1.73,1.78A1.62,1.62,0,0,0,86.08,166.62Zm35.18-34.38h8.13c2.59,0,3.15.45,6.29,2.93,2.21,1.74,8.57,7.31,8.62,7.36a1.29,1.29,0,0,1,.36,1.43,1.31,1.31,0,0,1-1.21.84h-11.9a4.58,4.58,0,0,0-8.25,0h-2ZM98.7,143a25.76,25.76,0,0,1,4-5.61c4.2-4.45,6.48-5.08,6.51-5.1h7V144.8H99.88a1.31,1.31,0,0,1-1.1-.6A1.29,1.29,0,0,1,98.7,143Zm1,28.18a6.16,6.16,0,1,1,6.16-6.15A6.16,6.16,0,0,1,99.66,171.13Zm44.51-8.29h-33l-9.48-14.11h45.49Zm12.27,8.29A6.16,6.16,0,1,1,162.6,165,6.16,6.16,0,0,1,156.44,171.13Z"/><path d="M72.75,149.49h3.64v-1.7a8.49,8.49,0,0,1,.26-2h-3.9a1.83,1.83,0,1,0,0,3.66Z"/><path d="M25.85,205.15c-5.85,3-12.17.88-15.24-5.17s-1-12.39,4.82-15.36,12.21-.9,15.28,5.16S31.71,202.18,25.85,205.15Zm-2-3.86c3.9-2,5.32-6,3.42-9.79s-6-5-9.91-3-5.29,6-3.39,9.77S20,203.26,23.89,201.29Z"/><path d="M39.63,205.26l-10.5,8.56a4.71,4.71,0,0,0-1.82,2.82A4.68,4.68,0,0,0,31.64,222a4.67,4.67,0,0,0,3.13-1.22l10.5-8.56,2.66,3.26-10.22,8.33a9.08,9.08,0,0,1-5.49,2.39,8.86,8.86,0,0,1-6.86-3.5,8.84,8.84,0,0,1-2-7.43,9.13,9.13,0,0,1,3.43-4.89L37,202Z"/><path d="M53.4,225.07,41.5,238.51l-3.15-2.79,11.9-13.44-3.63-3.22,2.4-2.71,10.41,9.22L57,228.28Z"/><path d="M74.64,239.38l-6.26-3.64L66,239.91l5.87,3.41L70,246.45,64.14,243l-4.78,8.22-3.64-2.12L66.56,230.5l9.9,5.75Z"/><path d="M95.4,255.09c-2.2,6.19-8.22,9-14.62,6.73s-9.27-8.28-7.06-14.46,8.24-9.05,14.63-6.76S97.61,248.91,95.4,255.09Zm-4.08-1.45c1.47-4.11-.29-8-4.25-9.45s-7.8.51-9.27,4.62.3,8,4.26,9.42S89.86,257.75,91.32,253.64Z"/><path d="M107.64,245.92c3,.43,4.34,1.41,5.21,2.39a6.1,6.1,0,0,1,1.42,5.1,5.87,5.87,0,0,1-3.22,4.67,5.77,5.77,0,0,1-2.47.59l5.37,10-5.19-.75-4.46-9.4-.51-.07L102.55,267l-4.16-.6L101.46,245Zm-3.43,9.54,1.18.17c.8.12,4.12.5,4.57-2.64s-2.81-3.67-3.58-3.78l-1.24-.18Z"/><path d="M131.06,246.81c3-.3,5.63-.24,8.19,1.29a10.69,10.69,0,0,1,5,8.24,10.28,10.28,0,0,1-3.43,9.09c-2.34,2-4.66,2.55-7.65,2.85l-5.53.56-2.17-21.46Zm.39,18,1.28-.13a9.06,9.06,0,0,0,5.11-1.95,7,7,0,0,0,2.09-6,7.2,7.2,0,0,0-3.22-5.46,8.8,8.8,0,0,0-5.42-.88l-1.28.13Z"/><path d="M158.14,245.1l-7.48,2.07,1.28,4.64,7.17-2,1,3.49-7.17,2,1.57,5.67,7.48-2.07,1,3.49-11.53,3.19-5.75-20.79,11.53-3.19Z"/><path d="M163.86,238.83l7,16.51,6.13-2.62,1.42,3.33-10,4.27L160,240.48Z"/><path d="M175.47,233,186,251.89l-3.68,2L171.8,235.08Z"/><path d="M180.71,230,194,238.13l-4-15.06,3.68-2.74,5.57,22.74-2,1.51L177,232.69Z"/><path d="M205.23,213.08l-5.38,5.59,3.47,3.34,5.16-5.36,2.61,2.52-5.16,5.35,4.24,4.08,5.38-5.58,2.61,2.51-8.3,8.61-15.53-15,8.3-8.61Z"/><path d="M208.07,203.25c1.71-2.44,3.22-3.23,4.49-3.57a6.11,6.11,0,0,1,5.19,1,5.91,5.91,0,0,1,2.71,5,6.12,6.12,0,0,1-.59,2.47l11.3-.28-3,4.29-10.41-.28-.29.43,7.09,5-2.42,3.44-17.65-12.41Zm7,7.37.69-1c.47-.66,2.3-3.44-.29-5.26s-4.54.84-5,1.47l-.72,1Z"/><path d="M226.39,195.62l-13.77,1.53,2.18-4.48,8.77-.87-4.71-7.44,2.18-4.48,7.19,12,8.87,4.33-1.85,3.77Z"/><path d="M72.94,32.76a4.24,4.24,0,0,0-4-.07c-2,1-2,2.61-1.52,3.59a1.84,1.84,0,0,0,1.25,1,7.52,7.52,0,0,0,2.87-.06,12.48,12.48,0,0,1,4.87,0,5.91,5.91,0,0,1,3.68,3.22c1.88,3.76.45,7.7-3.53,9.7a8.89,8.89,0,0,1-8.48-.31l1.29-3.57a5.06,5.06,0,0,0,5.33.54c1.71-.86,2.46-2.53,1.64-4.15a2.46,2.46,0,0,0-1.62-1.36,9.58,9.58,0,0,0-3.68.08,10.48,10.48,0,0,1-4-.07,5,5,0,0,1-3.33-2.82c-1.42-2.83-.93-6.62,3.34-8.76a8.33,8.33,0,0,1,6.6-.49Z"/><path d="M86.29,26.31l5.7,17-4,1.33-5.7-17-4.6,1.54-1.15-3.44,13.18-4.41,1.15,3.43Z"/><path d="M109,34.91l-8.57,1.47-1.12,4.78-4.49.77,5.5-22.83,3.25-.55,12.54,19.73-4.46.77Zm-1.79-3.18-4.34-7.13-1.71,8.17Z"/><path d="M127.9,27.15l9.89.31v.26c-.05,1.45-.38,6-3.44,8.82A11.87,11.87,0,0,1,118.86,36a11.55,11.55,0,0,1-2.94-8.41,11,11,0,0,1,3.41-7.91,11.51,11.51,0,0,1,8.6-3,10.49,10.49,0,0,1,4.95,1.28A10.26,10.26,0,0,1,136.79,22l-3.71,1.86a5.82,5.82,0,0,0-2.44-2.63,7.31,7.31,0,0,0-8,1,8.06,8.06,0,0,0-2.35,5.63,7.31,7.31,0,0,0,2,5.52,6.66,6.66,0,0,0,4.72,2,7.25,7.25,0,0,0,4.28-1.17,5.72,5.72,0,0,0,2.13-3.23l-5.55-.17Z"/><path d="M155.79,24.88l-7.58-1.66-1,4.7,7.26,1.6-.77,3.54-7.27-1.6-1.26,5.75,7.58,1.66-.78,3.54-11.69-2.57,4.63-21.06,11.69,2.56Z"/><path d="M167.92,31c2-3.37,5.63-4.09,9-2.51,3.74,1.77,5.11,5,3.56,8.27a4.87,4.87,0,0,1-4.19,3,5.21,5.21,0,0,1,.77,6.06c-1.9,4-6.06,4.78-9.92,2.95s-5.59-5.48-4.14-9.37l3.8,1.8a3.4,3.4,0,0,0,1.92,4.31,3.4,3.4,0,1,0,2.8-6.19l-.5-.23,1.31-2.75.52.25a2.76,2.76,0,0,0,3.92-1.39,2.67,2.67,0,0,0-1.35-3.79,2.86,2.86,0,0,0-3.89,1.26Z"/></g></g></svg>