<svg xmlns="http://www.w3.org/2000/svg" viewBox="0 0 235.18 279.99"><defs><style>.cls-1,.cls-2{fill:none;stroke-miterlimit:10;}.cls-1{stroke:#009000;stroke-width:3.67px;}.cls-2{stroke:#fff;stroke-width:18.37px;}.cls-3{fill:#009000;}.cls-4{fill:#fff;}</style></defs><g id="Layer_2" data-name="Layer 2"><g id="Layer_1-2" data-name="Layer 1"><circle class="cls-1" cx="117.59" cy="142.96" r="115.75"/><path class="cls-2" d="M27.81,215.6c-5.49,3.6-12,2.23-15.73-3.44s-2.4-12.2,3.08-15.8,12-2.26,15.76,3.42S33.3,212,27.81,215.6ZM25.43,212c3.65-2.4,4.61-6.59,2.3-10.11s-6.54-4.29-10.19-1.89-4.58,6.57-2.27,10.08S21.78,214.37,25.43,212Z"/><path class="cls-2" d="M43.08,215.67c2.09,2.12,2.61,3.75,2.72,5.05a6.14,6.14,0,0,1-2,4.93,5.87,5.87,0,0,1-5.38,1.77,6.06,6.06,0,0,1-2.33-1l-1.74,11.17-3.68-3.73,2.12-10.18-.36-.37-6.17,6.09-2.95-3L38.7,211.23Zm-8.49,5.53.84.85c.57.58,3,2.88,5.23.65s0-4.62-.56-5.17l-.89-.9Z"/><path class="cls-2" d="M55.52,226.6c2.46,1.73,4.41,3.5,5.35,6.33a10.73,10.73,0,0,1-1.62,9.5,10.33,10.33,0,0,1-8.55,4.62c-3.09,0-5.18-1.12-7.64-2.85L38.51,241l12.41-17.64ZM44,240.46l1.06.74a9,9,0,0,0,5.13,1.87,7,7,0,0,0,5.48-3.14,7.18,7.18,0,0,0,1.15-6.23,8.84,8.84,0,0,0-3.52-4.21l-1.06-.75Z"/><path class="cls-2" d="M77.12,243l-7-3.33L68,244.06l6.71,3.2-1.55,3.26-6.72-3.19L64,252.64,71,256l-1.56,3.27L58.6,254.1l9.27-19.47,10.8,5.15Z"/><path class="cls-2" d="M87.34,242.61c2.85.85,4.09,2,4.81,3.12a6.14,6.14,0,0,1,.66,5.26,5.81,5.81,0,0,1-6.39,4.37L90.27,266l-5-1.49-3-9.95-.49-.15-2.47,8.31-4-1.2,6.14-20.68Zm-4.79,8.94,1.15.34c.78.23,4,1.08,4.9-1.95s-2.24-4-3-4.27l-1.21-.36Z"/><path class="cls-2" d="M111.18,246.88c3,.17,4.45,1,5.4,1.92a6.12,6.12,0,0,1,1.86,5,5.87,5.87,0,0,1-2.79,4.93,6,6,0,0,1-2.41.81l6.21,9.44-5.23-.29-5.27-9-.51,0-.48,8.66-4.2-.24L105,246.54Zm-2.58,9.8,1.19.07c.81,0,4.14.13,4.32-3s-3.12-3.41-3.89-3.45l-1.26-.07Z"/><path class="cls-2" d="M134.46,249.57l-7.72.75.47,4.8,7.4-.72L135,258l-7.41.72.57,5.86,7.72-.75.35,3.6-11.9,1.16-2.08-21.47L134.12,246Z"/><path class="cls-2" d="M157.34,261.7a11.12,11.12,0,0,1-4.84,2.57,10.61,10.61,0,0,1-8.39-.91,10.74,10.74,0,0,1-5.43-7.1,11.27,11.27,0,0,1,1.21-9,12,12,0,0,1,12.41-4.82l1.24,4.76a6.89,6.89,0,0,0-5.65-1c-4.19,1.09-6,5.25-5,9.09a7.15,7.15,0,0,0,8.94,5.29A6.52,6.52,0,0,0,156.1,257Z"/><path class="cls-2" d="M158.59,238.72l8.1,20-3.9,1.58-8.1-20Z"/><path class="cls-2" d="M174.59,234.62l-6.81,3.71,2.3,4.23,6.53-3.55,1.73,3.18-6.53,3.55,2.81,5.18,6.82-3.71,1.73,3.18-10.52,5.71-10.3-19,10.52-5.71Z"/><path class="cls-2" d="M177,228.66l13.45,7.88-4.37-15,3.62-2.82,6.07,22.61-2,1.55-20.4-11.44Z"/><path class="cls-2" d="M201.16,211.26,195.9,217l3.54,3.27,5-5.47,2.66,2.46-5,5.46,4.33,4,5.26-5.7,2.66,2.45-8.11,8.8L190.39,217.6l8.11-8.8Z"/><path class="cls-2" d="M203.41,202c1.64-2.52,3.34-4.53,6.14-5.57a10.67,10.67,0,0,1,9.55,1.28,10.31,10.31,0,0,1,4.92,8.38c.11,3.09-.93,5.22-2.57,7.74l-3,4.67L200.33,206.7Zm14.26,11,.71-1.09a9,9,0,0,0,1.68-5.19,7,7,0,0,0-3.33-5.38,7.21,7.21,0,0,0-6.27-.92,8.82,8.82,0,0,0-4.09,3.67l-.7,1.08Z"/><path class="cls-2" d="M67.35,32.76a4.21,4.21,0,0,0-4-.07c-2,1-2,2.6-1.53,3.59a1.84,1.84,0,0,0,1.26,1A7.13,7.13,0,0,0,66,37.21a12.66,12.66,0,0,1,4.87,0,5.91,5.91,0,0,1,3.68,3.22C76.4,44.17,75,48.1,71,50.1a8.89,8.89,0,0,1-8.48-.3l1.28-3.58a5.06,5.06,0,0,0,5.34.55,3,3,0,0,0,1.64-4.16,2.48,2.48,0,0,0-1.62-1.35,9.76,9.76,0,0,0-3.68.07,10.46,10.46,0,0,1-4-.06,5,5,0,0,1-3.33-2.82c-1.42-2.83-.94-6.62,3.34-8.77A8.32,8.32,0,0,1,68,29.2Z"/><path class="cls-2" d="M80.7,26.31l5.7,17-4,1.34-5.7-17-4.6,1.54L71,25.75l13.18-4.41,1.15,3.43Z"/><path class="cls-2" d="M103.38,34.9l-8.57,1.47-1.12,4.79-4.49.77L94.7,19.1,98,18.54l12.54,19.74L106,39Zm-1.79-3.17L97.25,24.6l-1.72,8.17Z"/><path class="cls-2" d="M122.31,27.14l9.89.31v.26c-.05,1.46-.38,6-3.45,8.82A10.33,10.33,0,0,1,121,39.14,10.45,10.45,0,0,1,113.26,36a11.59,11.59,0,0,1-2.94-8.41,11.05,11.05,0,0,1,3.42-7.92,11.53,11.53,0,0,1,8.6-3,10.47,10.47,0,0,1,4.94,1.29A10.08,10.08,0,0,1,131.2,22l-3.71,1.85a6,6,0,0,0-2.44-2.63,7.08,7.08,0,0,0-3-.77,7.33,7.33,0,0,0-5,1.75,8.09,8.09,0,0,0-2.34,5.62,7.36,7.36,0,0,0,2,5.53,6.64,6.64,0,0,0,4.73,2,7.12,7.12,0,0,0,4.27-1.16,5.73,5.73,0,0,0,2.14-3.23l-5.56-.18Z"/><path class="cls-2" d="M150.2,24.88l-7.58-1.67-1,4.71,7.26,1.6-.78,3.53-7.26-1.59-1.27,5.75,7.59,1.66-.78,3.54-11.69-2.57,4.63-21.07L151,21.34Z"/><path class="cls-2" d="M168.36,31.65l-2.8-1.33,1.55-3.27,6.6,3.13-9.25,19.48-3.8-1.8Z"/><circle class="cls-3" cx="117.59" cy="142.96" r="81.82" transform="translate(-21.38 20.68) rotate(-9.22)"/><path class="cls-3" d="M117.59,64.65A78.32,78.32,0,1,1,39.27,143a78.4,78.4,0,0,1,78.32-78.31m0-7A85.32,85.32,0,1,0,202.91,143a85.32,85.32,0,0,0-85.32-85.32Z"/><path class="cls-4" d="M144.62,170.67a2.54,2.54,0,0,1-1.72-.66L124,153H108a13.11,13.11,0,0,1-13.11-13.11V117A13.11,13.11,0,0,1,108,103.88h40.73A13.11,13.11,0,0,1,161.83,117v22.88A13.11,13.11,0,0,1,148.72,153h-1.54v15.13a2.56,2.56,0,0,1-2.56,2.56ZM108,109a8,8,0,0,0-8,8v22.88a8,8,0,0,0,8,8h17a2.53,2.53,0,0,1,1.71.66l15.38,13.84V150.42a2.55,2.55,0,0,1,2.56-2.56h4.1a8,8,0,0,0,8-8V117a8,8,0,0,0-8-8Z"/><path class="cls-4" d="M90.57,182.05A2.59,2.59,0,0,1,88,179.48V164.36H86.46a13.11,13.11,0,0,1-13.11-13.11V128.36a13.11,13.11,0,0,1,13.11-13.11,2.57,2.57,0,1,1,0,5.13,8,8,0,0,0-8,8v22.89a8,8,0,0,0,8,8h4.11a2.56,2.56,0,0,1,2.56,2.56v11.94l15.37-13.84a2.58,2.58,0,0,1,1.71-.66h9.62a2.57,2.57,0,0,1,0,5.13H111.2l-18.92,17A2.56,2.56,0,0,1,90.57,182.05Z"/><path class="cls-4" d="M117.05,130.89h0a2.56,2.56,0,0,1,0-5.12h0a2.56,2.56,0,0,1,0,5.12Z"/><path class="cls-4" d="M128.37,130.89h0a2.56,2.56,0,1,1,0-5.12h0a2.56,2.56,0,0,1,0,5.12Z"/><path class="cls-4" d="M139.68,130.89h0a2.56,2.56,0,0,1,0-5.12h0a2.56,2.56,0,1,1,0,5.12Z"/><path class="cls-3" d="M27.81,215.6c-5.49,3.6-12,2.23-15.73-3.44s-2.4-12.2,3.08-15.8,12-2.26,15.76,3.42S33.3,212,27.81,215.6ZM25.43,212c3.65-2.4,4.61-6.59,2.3-10.11s-6.54-4.29-10.19-1.89-4.58,6.57-2.27,10.08S21.78,214.37,25.43,212Z"/><path class="cls-3" d="M43.08,215.67c2.09,2.12,2.61,3.75,2.72,5.05a6.14,6.14,0,0,1-2,4.93,5.87,5.87,0,0,1-5.38,1.77,6.06,6.06,0,0,1-2.33-1l-1.74,11.17-3.68-3.73,2.12-10.18-.36-.37-6.17,6.09-2.95-3L38.7,211.23Zm-8.49,5.53.84.85c.57.58,3,2.88,5.23.65s0-4.62-.56-5.17l-.89-.9Z"/><path class="cls-3" d="M55.52,226.6c2.46,1.73,4.41,3.5,5.35,6.33a10.73,10.73,0,0,1-1.62,9.5,10.33,10.33,0,0,1-8.55,4.62c-3.09,0-5.18-1.12-7.64-2.85L38.51,241l12.41-17.64ZM44,240.46l1.06.74a9,9,0,0,0,5.13,1.87,7,7,0,0,0,5.48-3.14,7.18,7.18,0,0,0,1.15-6.23,8.84,8.84,0,0,0-3.52-4.21l-1.06-.75Z"/><path class="cls-3" d="M77.12,243l-7-3.33L68,244.06l6.71,3.2-1.55,3.26-6.72-3.19L64,252.64,71,256l-1.56,3.27L58.6,254.1l9.27-19.47,10.8,5.15Z"/><path class="cls-3" d="M87.34,242.61c2.85.85,4.09,2,4.81,3.12a6.14,6.14,0,0,1,.66,5.26,5.81,5.81,0,0,1-6.39,4.37L90.27,266l-5-1.49-3-9.95-.49-.15-2.47,8.31-4-1.2,6.14-20.68Zm-4.79,8.94,1.15.34c.78.23,4,1.08,4.9-1.95s-2.24-4-3-4.27l-1.21-.36Z"/><path class="cls-3" d="M111.18,246.88c3,.17,4.45,1,5.4,1.92a6.12,6.12,0,0,1,1.86,5,5.87,5.87,0,0,1-2.79,4.93,6,6,0,0,1-2.41.81l6.21,9.44-5.23-.29-5.27-9-.51,0-.48,8.66-4.2-.24L105,246.54Zm-2.58,9.8,1.19.07c.81,0,4.14.13,4.32-3s-3.12-3.41-3.89-3.45l-1.26-.07Z"/><path class="cls-3" d="M134.46,249.57l-7.72.75.47,4.8,7.4-.72L135,258l-7.41.72.57,5.86,7.72-.75.35,3.6-11.9,1.16-2.08-21.47L134.12,246Z"/><path class="cls-3" d="M157.34,261.7a11.12,11.12,0,0,1-4.84,2.57,10.61,10.61,0,0,1-8.39-.91,10.74,10.74,0,0,1-5.43-7.1,11.27,11.27,0,0,1,1.21-9,12,12,0,0,1,12.41-4.82l1.24,4.76a6.89,6.89,0,0,0-5.65-1c-4.19,1.09-6,5.25-5,9.09a7.15,7.15,0,0,0,8.94,5.29A6.52,6.52,0,0,0,156.1,257Z"/><path class="cls-3" d="M158.59,238.72l8.1,20-3.9,1.58-8.1-20Z"/><path class="cls-3" d="M174.59,234.62l-6.81,3.71,2.3,4.23,6.53-3.55,1.73,3.18-6.53,3.55,2.81,5.18,6.82-3.71,1.73,3.18-10.52,5.71-10.3-19,10.52-5.71Z"/><path class="cls-3" d="M177,228.66l13.45,7.88-4.37-15,3.62-2.82,6.07,22.61-2,1.55-20.4-11.44Z"/><path class="cls-3" d="M201.16,211.26,195.9,217l3.54,3.27,5-5.47,2.66,2.46-5,5.46,4.33,4,5.26-5.7,2.66,2.45-8.11,8.8L190.39,217.6l8.11-8.8Z"/><path class="cls-3" d="M203.41,202c1.64-2.52,3.34-4.53,6.14-5.57a10.67,10.67,0,0,1,9.55,1.28,10.31,10.31,0,0,1,4.92,8.38c.11,3.09-.93,5.22-2.57,7.74l-3,4.67L200.33,206.7Zm14.26,11,.71-1.09a9,9,0,0,0,1.68-5.19,7,7,0,0,0-3.33-5.38,7.21,7.21,0,0,0-6.27-.92,8.82,8.82,0,0,0-4.09,3.67l-.7,1.08Z"/><path class="cls-3" d="M67.35,32.76a4.21,4.21,0,0,0-4-.07c-2,1-2,2.6-1.53,3.59a1.84,1.84,0,0,0,1.26,1A7.13,7.13,0,0,0,66,37.21a12.66,12.66,0,0,1,4.87,0,5.91,5.91,0,0,1,3.68,3.22C76.4,44.17,75,48.1,71,50.1a8.89,8.89,0,0,1-8.48-.3l1.28-3.58a5.06,5.06,0,0,0,5.34.55,3,3,0,0,0,1.64-4.16,2.48,2.48,0,0,0-1.62-1.35,9.76,9.76,0,0,0-3.68.07,10.46,10.46,0,0,1-4-.06,5,5,0,0,1-3.33-2.82c-1.42-2.83-.94-6.62,3.34-8.77A8.32,8.32,0,0,1,68,29.2Z"/><path class="cls-3" d="M80.7,26.31l5.7,17-4,1.34-5.7-17-4.6,1.54L71,25.75l13.18-4.41,1.15,3.43Z"/><path class="cls-3" d="M103.38,34.9l-8.57,1.47-1.12,4.79-4.49.77L94.7,19.1,98,18.54l12.54,19.74L106,39Zm-1.79-3.17L97.25,24.6l-1.72,8.17Z"/><path class="cls-3" d="M122.31,27.14l9.89.31v.26c-.05,1.46-.38,6-3.45,8.82A10.33,10.33,0,0,1,121,39.14,10.45,10.45,0,0,1,113.26,36a11.59,11.59,0,0,1-2.94-8.41,11.05,11.05,0,0,1,3.42-7.92,11.53,11.53,0,0,1,8.6-3,10.47,10.47,0,0,1,4.94,1.29A10.08,10.08,0,0,1,131.2,22l-3.71,1.85a6,6,0,0,0-2.44-2.63,7.08,7.08,0,0,0-3-.77,7.33,7.33,0,0,0-5,1.75,8.09,8.09,0,0,0-2.34,5.62,7.36,7.36,0,0,0,2,5.53,6.64,6.64,0,0,0,4.73,2,7.12,7.12,0,0,0,4.27-1.16,5.73,5.73,0,0,0,2.14-3.23l-5.56-.18Z"/><path class="cls-3" d="M150.2,24.88l-7.58-1.67-1,4.71,7.26,1.6-.78,3.53-7.26-1.59-1.27,5.75,7.59,1.66-.78,3.54-11.69-2.57,4.63-21.07L151,21.34Z"/><path class="cls-3" d="M168.36,31.65l-2.8-1.33,1.55-3.27,6.6,3.13-9.25,19.48-3.8-1.8Z"/></g></g></svg>