<svg xmlns="http://www.w3.org/2000/svg" viewBox="0 0 220.51 248.95"><defs><style>.cls-1{fill:#1d1d1b;}</style></defs><g id="Layer_2" data-name="Layer 2"><g id="Layer_1-2" data-name="Layer 1"><path class="cls-1" d="M209.56,48.45,205.81,50c-7.08,2.84-15.9,4.34-25.51,4.34h0c-2.66,0-5.5-.12-8.45-.37a113,113,0,0,1-23.61-4.57c-2.13-.65-4.19-1.35-6.15-2.07-12.13-4.51-22.28-10.83-28.59-17.81l-3.32-3.72-2.26,2.78-.86.93c-6.3,7-16.46,13.31-28.6,17.82-1.94.72-4,1.41-6.15,2.07a112.73,112.73,0,0,1-23.61,4.57c-2.92.25-5.74.37-8.38.37h-.09c-9.61,0-18.43-1.5-25.51-4.34L11,48.45,0,76.3l2.6,1.26.73.36h0l-.21,0,.24.07a25.4,25.4,0,0,1,7,5.84A28.35,28.35,0,0,1,17,102.66v.22c0,1.13,0,2.27-.05,3.5a239.57,239.57,0,0,1-2.48,25.19c-1.22,9.07-2.37,17.63-2.38,26.31a69.5,69.5,0,0,0,3,21.23c.5,1.59,1.06,3.14,1.66,4.6A66.38,66.38,0,0,0,29.12,203c1.87,2.09,3.91,4.16,6.08,6.16s4.25,3.76,6.46,5.44l.52.4a78.4,78.4,0,0,0,17.36,9.89,131.78,131.78,0,0,0,15.89,5.21l1.26.34c11.22,3.1,20.91,5.77,30.47,15.27l.82.79,2.1,2.48,3.28-3.27c9.55-9.5,19.24-12.17,30.47-15.27l1.25-.34c13.72-3.78,26.22-8,40.24-20.94,2.17-2,4.21-4.08,6.07-6.16a66.17,66.17,0,0,0,12.31-19.26c.6-1.46,1.16-3,1.66-4.6a69.5,69.5,0,0,0,3-21.23c0-8.68-1.16-17.24-2.38-26.3a242.46,242.46,0,0,1-2.48-25.2c0-1.19-.05-2.36-.05-3.5v-.2a28.33,28.33,0,0,1,7-19.27,27.68,27.68,0,0,1,4.76-4.28c.67-.47,1.19-.78,1.5-1l0,0,.34-.19,3.41-1.67ZM3.34,77.92l0,0,0,0ZM211.65,74a33.49,33.49,0,0,0-5.86,5.26,34.41,34.41,0,0,0-8.55,23.35v.25c0,1.2,0,2.43,0,3.68a245,245,0,0,0,2.54,25.85c1.19,8.85,2.32,17.22,2.32,25.47a63.22,63.22,0,0,1-2.74,19.35c-.45,1.42-.95,2.81-1.48,4.12a60.29,60.29,0,0,1-11.19,17.46c-1.73,1.93-3.63,3.86-5.66,5.74-14,13-27.14,16.6-37.66,19.5l-1.25.35c-11.1,3.06-21.61,5.95-31.91,15.6-10.3-9.65-20.81-12.54-31.92-15.6l-1.25-.35c-10.74-3-20.5-6.06-31.15-14.06l-.5-.38c-2-1.56-4.06-3.26-6-5.06s-3.92-3.8-5.66-5.74a60.08,60.08,0,0,1-11.18-17.47c-.54-1.3-1-2.69-1.49-4.11a63.23,63.23,0,0,1-2.73-19.35c0-8.26,1.12-16.62,2.32-25.48a247.22,247.22,0,0,0,2.53-25.84c0-1.29.05-2.5.05-3.68v-.22a34.53,34.53,0,0,0-8.14-22.92,33.43,33.43,0,0,0-7.27-6.39l6.61-16.81a77,77,0,0,0,25.73,4h.1c2.82,0,5.81-.13,8.91-.39a120,120,0,0,0,24.91-4.82c2.26-.69,4.44-1.43,6.49-2.19,12.4-4.61,22.61-10.8,29.65-18,7,7.18,17.25,13.38,29.64,18,2.07.76,4.25,1.5,6.5,2.19a120,120,0,0,0,24.91,4.82c3.09.26,6.09.39,8.9.39h.1a77,77,0,0,0,25.73-4l6.61,16.81C212.35,73.54,212,73.76,211.65,74Z"/><path d="M74.77,193l-6.69-3.92-2.44,4.15L72.06,197l-1.83,3.13-6.42-3.76-3,5.07,6.69,3.93-1.83,3.12-10.32-6.05,10.9-18.6,10.32,6.05Z"/><path d="M72.78,212.25l5.39-20.88,2.82.73,9.12,17.21,3.6-13.93,4.07,1.05-5.4,20.89-2.82-.73-9.1-17.25-3.61,14Z"/><path d="M109,196.68l-.81,14.52c-.1,1.91-.4,4.91-2.87,6.39a6.66,6.66,0,0,1-3.58.77,7.09,7.09,0,0,1-4.83-2.27l2.72-2.93a2.51,2.51,0,0,0,2,1.28,1.88,1.88,0,0,0,1.69-.65c.55-.72.6-2.14.67-3.46l.77-13.89Z"/><path d="M135.69,205.12c.82,6.52-3.27,11.76-10,12.62s-12-3.21-12.84-9.73,3.27-11.79,10-12.64S134.87,198.61,135.69,205.12Zm-4.3.55c-.55-4.33-3.89-7-8.06-6.51s-6.74,4-6.19,8.31,3.89,7,8.06,6.48S131.94,210,131.39,205.67Z"/><path d="M144.13,202.85l-11.25-8.08,4.61-1.87,7.1,5.22,1.48-8.69,4.62-1.87L148,201.27l3.7,9.14-3.9,1.58Z"/><path d="M158.89,198.73l-8.39-12.44,3.32-2.24,8.4,12.44Zm2.75.49a2.52,2.52,0,1,1-.68,3.5A2.48,2.48,0,0,1,161.64,199.22Z"/><polygon points="97.32 98.5 67.94 101.17 67.94 85.7 97.32 88.37 97.32 98.5"/><polygon points="120.59 94.85 145.52 79.08 152.57 92.84 125.21 103.87 120.59 94.85"/><circle cx="83.97" cy="116.63" r="13.14"/><circle cx="136.54" cy="116.63" r="13.14"/><path d="M158.83,152.89a65.66,65.66,0,0,1-97.15,0l9.15-8.32a53.3,53.3,0,0,0,78.85,0Z"/><path d="M60,16.13a4.22,4.22,0,0,0-4-.07c-2,1-2,2.61-1.53,3.59a1.81,1.81,0,0,0,1.26,1,7.47,7.47,0,0,0,2.86-.06,12.28,12.28,0,0,1,4.87,0,5.85,5.85,0,0,1,3.68,3.22c1.88,3.75.46,7.69-3.53,9.69a8.86,8.86,0,0,1-8.47-.31l1.28-3.57a5.07,5.07,0,0,0,5.34.54A3,3,0,0,0,63.44,26a2.54,2.54,0,0,0-1.62-1.36,9.63,9.63,0,0,0-3.69.08,10.29,10.29,0,0,1-4.05-.07,5,5,0,0,1-3.33-2.81c-1.42-2.84-.93-6.63,3.35-8.77a8.31,8.31,0,0,1,6.59-.49Z"/><path d="M73.36,9.68l5.7,17-4,1.33L69.38,11l-4.6,1.54L63.63,9.12,76.81,4.71,78,8.14Z"/><path d="M96.05,18.28l-8.58,1.47-1.11,4.78-4.5.77L87.37,2.47l3.25-.55,12.53,19.73-4.46.77Zm-1.79-3.17L89.92,8,88.2,16.14Z"/><path d="M115,10.52l9.89.31v.26c0,1.45-.38,6-3.44,8.82a10.29,10.29,0,0,1-7.75,2.6,10.4,10.4,0,0,1-7.73-3.15A11.59,11.59,0,0,1,103,11,11,11,0,0,1,106.41,3,11.48,11.48,0,0,1,115,0,10.48,10.48,0,0,1,120,1.29a10.21,10.21,0,0,1,3.92,4.07l-3.72,1.86a5.77,5.77,0,0,0-2.44-2.63,7,7,0,0,0-3-.77,7.25,7.25,0,0,0-5,1.75,8,8,0,0,0-2.34,5.62,7.35,7.35,0,0,0,2,5.53,6.69,6.69,0,0,0,4.72,2,7.29,7.29,0,0,0,4.28-1.16,5.81,5.81,0,0,0,2.14-3.24l-5.56-.17Z"/><path d="M142.87,8.25l-7.58-1.66-1,4.7,7.27,1.6-.78,3.54-7.27-1.6-1.26,5.75,7.58,1.67L139,25.78l-11.68-2.57L132,2.15l11.68,2.57Z"/><path d="M163.59,27.87,165.87,29l-1.45,3-2.27-1.08-1.75,3.68-3.57-1.69,1.75-3.68-9.52-4.52.81-1.7,16.36-9.51,3.42,1.62ZM160,26.18l3.53-7.42-8.55,5Z"/></g></g></svg>