<svg xmlns="http://www.w3.org/2000/svg" viewBox="0 0 239.45 280.45"><defs><style>.cls-1,.cls-2{fill:none;}.cls-1{stroke:#009000;stroke-width:3.67px;}.cls-1,.cls-2,.cls-4,.cls-5{stroke-miterlimit:10;}.cls-2,.cls-4,.cls-5{stroke:#fff;}.cls-2{stroke-width:18.37px;}.cls-3{fill:#009000;}.cls-4,.cls-5{fill:#fff;}.cls-4{stroke-width:0.75px;}.cls-5{stroke-width:0.4px;}</style></defs><g id="Layer_2" data-name="Layer 2"><g id="Layer_1-2" data-name="Layer 1"><circle class="cls-1" cx="118.69" cy="142.96" r="115.75"/><path class="cls-2" d="M33,202.19l-18,11.93-2.33-3.51,18-11.92Z"/><path class="cls-2" d="M18.9,220l15.94-14.51,2,2.15L35,227.06l10.64-9.68,2.83,3.1L32.52,235l-2-2.15,1.83-19.42-10.67,9.71Z"/><path class="cls-2" d="M60.56,233.7l-10,14.91-3.49-2.34,10-14.91-4-2.7,2-3,11.55,7.74-2,3Z"/><path class="cls-2" d="M68.13,243.54l8.31,3.77,3.44-7.6,3.83,1.74L74.8,261.09,71,259.35l4-8.74-8.31-3.77-4,8.75-3.82-1.74,8.91-19.64,3.83,1.73Z"/><path class="cls-2" d="M97.87,248.88l-7.51-1.94-1.21,4.67,7.21,1.86-.91,3.5-7.2-1.86-1.47,5.7,7.51,1.94-.9,3.51-11.59-3,5.4-20.89,11.58,3Z"/><path class="cls-2" d="M112.51,256.08l8.12-8.94,5.3.12L116.59,257l9.35,11.82-5.56-.12-7.45-9.84-.5.48-.2,9.18-4.2-.09.47-21.57,4.21.09Z"/><path class="cls-2" d="M132.15,246.23l2.32,21.45-4.18.45L128,246.68Z"/><path class="cls-2" d="M143.61,247.82l3.8,17.54-4.11.89-3.79-17.54-4.74,1L134,246.2l13.59-2.94.76,3.54Z"/><path class="cls-2" d="M170.12,257.12a11,11,0,0,1-4.56,3.05A11,11,0,0,1,151,253.59a11.27,11.27,0,0,1,.29-9.12,11,11,0,0,1,6.43-5.43,10.79,10.79,0,0,1,5.44-.61l1.71,4.6a6.93,6.93,0,0,0-5.72-.45c-4.06,1.51-5.46,5.83-4.07,9.55a7.14,7.14,0,0,0,9.42,4.36,6.56,6.56,0,0,0,3.91-4Z"/><path class="cls-2" d="M173,241.56l7.79-4.73-4.32-7.13,3.59-2.18L191.25,246l-3.6,2.18-5-8.21-7.79,4.73,5,8.21-3.6,2.18-11.18-18.44,3.59-2.18Z"/><path class="cls-2" d="M194.22,220l-5.85,5.09,3.16,3.64,5.61-4.89,2.38,2.73-5.61,4.89,3.87,4.44,5.85-5.1,2.38,2.73-9,7.86-14.17-16.26,9-7.86Z"/><path class="cls-2" d="M210.82,229l-16.88-13.42,1.81-2.28L215.18,212l-11.26-9,2.62-3.29,16.88,13.43-1.81,2.27-19.46,1.31,11.29,9Z"/><path class="cls-2" d="M68.45,32.76a4.21,4.21,0,0,0-4-.07c-2,1-2,2.6-1.53,3.59a1.8,1.8,0,0,0,1.26,1,7.08,7.08,0,0,0,2.86-.06,12.71,12.71,0,0,1,4.88,0,5.89,5.89,0,0,1,3.67,3.22c1.89,3.76.46,7.69-3.53,9.69a8.87,8.87,0,0,1-8.47-.3l1.28-3.58a5.06,5.06,0,0,0,5.34.55,3,3,0,0,0,1.64-4.16,2.5,2.5,0,0,0-1.62-1.35,9.82,9.82,0,0,0-3.69.07,10.47,10.47,0,0,1-4.05-.06,5,5,0,0,1-3.33-2.82c-1.42-2.83-.93-6.62,3.35-8.77a8.31,8.31,0,0,1,6.59-.48Z"/><path class="cls-2" d="M81.79,26.31l5.7,17-4,1.34-5.7-17-4.6,1.54-1.15-3.43,13.18-4.41,1.15,3.43Z"/><path class="cls-2" d="M104.48,34.9,95.9,36.37l-1.11,4.79-4.5.77L95.8,19.1l3.25-.56,12.53,19.74-4.46.76Zm-1.79-3.17L98.35,24.6l-1.72,8.17Z"/><path class="cls-2" d="M123.4,27.14l9.89.31v.26c0,1.46-.38,6-3.44,8.82a10.34,10.34,0,0,1-7.75,2.61A10.45,10.45,0,0,1,114.36,36a11.59,11.59,0,0,1-2.94-8.41,11,11,0,0,1,3.42-7.92,11.52,11.52,0,0,1,8.6-3,10.47,10.47,0,0,1,4.94,1.29A10.08,10.08,0,0,1,132.3,22l-3.72,1.85a5.88,5.88,0,0,0-2.44-2.63,7,7,0,0,0-3-.77,7.32,7.32,0,0,0-5,1.75,8,8,0,0,0-2.34,5.62,7.32,7.32,0,0,0,2,5.53,6.62,6.62,0,0,0,4.73,2,7.12,7.12,0,0,0,4.27-1.16,5.73,5.73,0,0,0,2.14-3.23l-5.56-.18Z"/><path class="cls-2" d="M151.3,24.88l-7.58-1.67-1,4.71,7.27,1.6-.78,3.53-7.26-1.59-1.27,5.75,7.58,1.66-.77,3.54-11.69-2.57,4.63-21.07,11.69,2.57Z"/><path class="cls-2" d="M164.45,41.15c.54-.24,4.05-1.76,5.25-2.48a6.77,6.77,0,0,0,2.63-2.58,3.13,3.13,0,0,0-1.49-4.32,3.44,3.44,0,0,0-4.64,1.77l-3.91-1.86a7.19,7.19,0,0,1,9.92-3.27c4.53,2.15,5.4,6.36,3.93,9.45s-4.47,4.22-6.77,5.13l-5.09,2.06,7,3.34-1.56,3.27L155.63,45Z"/><circle class="cls-3" cx="118.69" cy="142.96" r="81.82" transform="translate(-35.28 246.99) rotate(-84.35)"/><path class="cls-3" d="M118.69,64.65A78.32,78.32,0,1,1,40.37,143a78.4,78.4,0,0,1,78.32-78.31m0-7A85.32,85.32,0,1,0,204,143a85.32,85.32,0,0,0-85.32-85.32Z"/><path class="cls-4" d="M144.72,174l-.76-.16a4.08,4.08,0,0,0,.75-1.65l.13-.6a4.07,4.07,0,0,0-.46-2.88,3.54,3.54,0,0,0,1.51-2.06c.08-.32.16-.64.22-.94a19.65,19.65,0,0,0-15.17-23.23l-19-4a19.63,19.63,0,0,0-23.26,15.11c-.07.3-.13.62-.18,1A3.54,3.54,0,0,0,89,157a4.05,4.05,0,0,0-1.62,2.47l-.12.6a4.38,4.38,0,0,0,0,1.84,4.78,4.78,0,0,0-5.32,3.75l-.55,2.62a4.77,4.77,0,0,0,3.17,5.52,3.38,3.38,0,0,0-.44,1.09l-.41,1.94a3.64,3.64,0,0,0,.14,2,2.41,2.41,0,0,0-.84,1.37l-.88,4.16A5,5,0,0,0,86,190.26l47.62,10.05a5,5,0,0,0,6-3.87l.88-4.16a2.36,2.36,0,0,0-.22-1.6,3.54,3.54,0,0,0,.92-1.74l.41-1.95a3.08,3.08,0,0,0,0-1.13l.56.12a4.8,4.8,0,0,0,5.67-3.7l.55-2.61A4.79,4.79,0,0,0,144.72,174ZM91.4,162.8a1.33,1.33,0,0,0-.35-.13l-.43-.09a1.84,1.84,0,0,1-1-2l.12-.59a1.71,1.71,0,0,1,2.13-1.27,1,1,0,0,0,.3,0l21,4.43a1.14,1.14,0,0,0,.14.39l2.6,4.44Zm28,6.29-3.1-5.29,22.53,4.75-5,3.61a1,1,0,0,0-.26.25l-6.91,4.52a1.83,1.83,0,0,1-1.37.25,1.78,1.78,0,0,1-1.15-.79Zm22.26.42.14-.11a1.62,1.62,0,0,1,.66,1.67l-.13.6a1.83,1.83,0,0,1-2.16,1.42l-2.68-.57Zm-30.24-28.67,19,4a17.19,17.19,0,0,1,13.29,20.33c-.05.27-.12.55-.19.83a1.08,1.08,0,0,1-1.26.77L91.72,156.12a1.07,1.07,0,0,1-.84-1.21l.15-.84A17.22,17.22,0,0,1,111.41,140.84Zm25.79,55.1a2.57,2.57,0,0,1-3.06,2l-47.62-10a2.58,2.58,0,0,1-2-3.06l.86-4.1h.17a3.63,3.63,0,0,0,.94.34l13.9,2.94a3.54,3.54,0,0,0,.58.07,3.86,3.86,0,0,0,.55.17l35.39,7.46a3.4,3.4,0,0,0,1,.07l.16.06Zm1.07-10.67a1,1,0,0,1,.93,1.22l-.41,1.94a1.17,1.17,0,0,1-1.37.9L102,181.86l-.27-.09a1.19,1.19,0,0,0-.59-.13.86.86,0,0,1-.28,0L87,178.69a1.16,1.16,0,0,1-.89-1.37l.41-1.95a1,1,0,0,1,1.34-.74,1.18,1.18,0,0,0,.53,0l49.41,10.43A1.32,1.32,0,0,0,138.27,185.27Zm7.2-3.49a2.34,2.34,0,0,1-2.78,1.81l-57.1-12.05a2.36,2.36,0,0,1-1.82-2.78l.56-2.62a2.34,2.34,0,0,1,2.78-1.81l2.77.59a4.58,4.58,0,0,0,.66.19l27.06,5.71,4.48,6.9A4.26,4.26,0,0,0,128,179l6.89-4.5,4.79,1a4.56,4.56,0,0,0,.89.09,1.42,1.42,0,0,0,.29.1l3.37.71a2.35,2.35,0,0,1,1.81,2.78Z"/><path class="cls-4" d="M111.73,145.87l1.56.33a1.22,1.22,0,0,0,.51-2.39l-1.57-.33a1.22,1.22,0,0,0-.5,2.39Z"/><path class="cls-4" d="M126.16,148.91l1.56.33a1.22,1.22,0,0,0,1.45-.94,1.24,1.24,0,0,0-.95-1.45l-1.56-.33a1.22,1.22,0,1,0-.5,2.39Z"/><path class="cls-4" d="M109.88,154.63l1.57.33a1.22,1.22,0,0,0,.5-2.39l-1.56-.33a1.22,1.22,0,1,0-.51,2.39Z"/><path class="cls-4" d="M124.31,157.67l1.56.33a1.22,1.22,0,1,0,.5-2.38l-1.56-.33a1.22,1.22,0,1,0-.5,2.38Z"/><path class="cls-4" d="M103.57,148.84l1.57.33a1.22,1.22,0,0,0,.5-2.39l-1.57-.33a1.22,1.22,0,0,0-.5,2.39Z"/><path class="cls-4" d="M118,151.88l1.56.33a1.22,1.22,0,0,0,1.45-.94,1.24,1.24,0,0,0-1-1.45l-1.56-.33a1.22,1.22,0,1,0-.5,2.39Z"/><path class="cls-4" d="M132.42,154.92l1.56.33a1.22,1.22,0,1,0,.51-2.38l-1.57-.33a1.22,1.22,0,0,0-.5,2.38Z"/><path class="cls-5" d="M170.31,115.65l-.66-1.15h0a9.71,9.71,0,0,0-.54-.87,17.54,17.54,0,0,0-20.4-7,3.4,3.4,0,0,0-1.52,1.05,3.58,3.58,0,0,0-.8,1.62l-.83,3.65-.73,3.24h0l-2.76,12.17a1.16,1.16,0,0,0,0,.18.68.68,0,0,0-.07.28,4.21,4.21,0,0,0,.36,1.89l0,0a.2.2,0,0,0,0,.08l.07.14h0l0,0,.09.15h0l.49.86a3.64,3.64,0,0,0,2.2,1.7,3.52,3.52,0,0,0,1,.13,3.57,3.57,0,0,0,1.8-.48l2-1.16,1.16,2a3.64,3.64,0,0,0,3.16,1.83,3.58,3.58,0,0,0,1.81-.48,3.53,3.53,0,0,0,1.7-2.27,3.74,3.74,0,0,0-.41-2.77l-.13-.23a3,3,0,0,0,.31-.15,3.66,3.66,0,0,0,1.78-2.58,3.84,3.84,0,0,0,0-.76l9.27-5.3a4.3,4.3,0,0,0,1.59-5.87Zm-22.65-6.07h0a2.23,2.23,0,0,1,.51-1h0a2.12,2.12,0,0,1,.95-.67A16.23,16.23,0,0,1,168,114.34h0a9.22,9.22,0,0,1,.5.81h0l.16.28L166,117a2.5,2.5,0,0,0-.53-1.48,14.58,14.58,0,0,0-16.1-4.72,16.56,16.56,0,0,0-2.2,1Zm-.3,22.66a2.33,2.33,0,0,1-3.17-.87l-.17-.29,3.67-2.11a.43.43,0,0,1,.58.16l1.12,2Zm10.76-4.87A2.31,2.31,0,0,1,157,129a1.92,1.92,0,0,1-.29.14l-1.94-3.39a.65.65,0,0,0-.89-.24.65.65,0,0,0-.24.89l2.1,3.67a.52.52,0,0,0,.06.16l.54.93a2.51,2.51,0,0,1,.27,1.83,2.25,2.25,0,0,1-1.08,1.44,2.35,2.35,0,0,1-3.19-.86l-2.92-5.11a1.74,1.74,0,0,0-2.36-.64l-3.63,2.08a2.58,2.58,0,0,1-.12-1c0-.08,0-.16,0-.25l2.76-12.16h0l.7-3.11a.72.72,0,0,0,.35-.08,16.3,16.3,0,0,1,2.64-1.26,13.26,13.26,0,0,1,14.65,4.29,1.19,1.19,0,0,1,.24,1,1.21,1.21,0,0,1-.57.79l-6.64,3.8a1.66,1.66,0,0,0-.61,2.25l1,1.72a2.54,2.54,0,0,1,.27.74A2.33,2.33,0,0,1,158.12,127.37Zm11.35-8.8a3,3,0,0,1-1.4,1.81l-8.94,5.12a2.85,2.85,0,0,0-.16-.3l-1-1.73a.34.34,0,0,1,.12-.47l6.62-3.78h0l4.59-2.63A3,3,0,0,1,169.47,118.57Z"/><path class="cls-5" d="M153.56,123.54a.66.66,0,0,0-1.14.65l.45.78a.65.65,0,0,0,.57.33.72.72,0,0,0,.32-.08.65.65,0,0,0,.25-.89Z"/><path class="cls-5" d="M156.56,116.23a3.06,3.06,0,0,0-2.73-1.44,4.56,4.56,0,0,0-2.21.6c-1.85,1.07-2.65,3.16-1.78,4.68a3.05,3.05,0,0,0,2.73,1.45,4.54,4.54,0,0,0,2.21-.61C156.63,119.85,157.43,117.75,156.56,116.23Zm-2.43,3.54a3.13,3.13,0,0,1-1.56.44,1.75,1.75,0,0,1-1.59-.78c-.52-.9.07-2.2,1.29-2.9a3.13,3.13,0,0,1,1.56-.44,1.76,1.76,0,0,1,1.6.79C155.94,117.77,155.36,119.07,154.13,119.77Z"/><path class="cls-5" d="M149.43,121.4a3.05,3.05,0,0,0-1.48.42c-1.16.67-1.69,1.85-1.2,2.7a1.59,1.59,0,0,0,1.46.75,3.08,3.08,0,0,0,1.48-.42c1.16-.66,1.69-1.85,1.2-2.7A1.6,1.6,0,0,0,149.43,121.4Zm-.39,2.32a1.85,1.85,0,0,1-.83.24c-.2,0-.31,0-.33-.09s.1-.56.72-.92a1.78,1.78,0,0,1,.83-.24c.2,0,.31.05.33.09S149.65,123.36,149,123.72Z"/><path class="cls-5" d="M160.23,118.39a3,3,0,0,0,1.47-.42,3,3,0,0,0,1.16-1.15,1.49,1.49,0,0,0-1.41-2.3,3.05,3.05,0,0,0-1.48.42,3,3,0,0,0-1.16,1.15,1.59,1.59,0,0,0,0,1.55A1.61,1.61,0,0,0,160.23,118.39ZM160,116.7a1.72,1.72,0,0,1,.65-.63,1.69,1.69,0,0,1,.83-.25c.2,0,.3.06.32.1s0,.13-.06.29a1.63,1.63,0,0,1-.65.62,1.75,1.75,0,0,1-.83.25c-.2,0-.31,0-.33-.09S159.88,116.85,160,116.7Z"/><path class="cls-5" d="M148.9,116.32a3.08,3.08,0,0,0,1.48-.42,2.93,2.93,0,0,0,1.15-1.14,1.58,1.58,0,0,0,.05-1.56,1.61,1.61,0,0,0-1.46-.75,3.05,3.05,0,0,0-1.48.42c-1.16.67-1.69,1.86-1.2,2.71A1.61,1.61,0,0,0,148.9,116.32Zm.39-2.31a1.72,1.72,0,0,1,.83-.25.46.46,0,0,1,.33.09.45.45,0,0,1-.07.29,1.65,1.65,0,0,1-.65.63,1.75,1.75,0,0,1-.83.25.46.46,0,0,1-.33-.09C148.51,114.83,148.67,114.36,149.29,114Z"/><path class="cls-4" d="M111.83,91.76a14.51,14.51,0,0,0-20.5,0,33.42,33.42,0,0,0-6.47,10.49c-1.81,4.54-2.48,8.73-1.91,11.88l-3,3a6.21,6.21,0,0,0-7.62.75,6,6,0,0,0,0,8.54,5.92,5.92,0,0,0,3.17,1.66,5.92,5.92,0,0,0,1.66,3.17,6,6,0,0,0,9.3-7.63l3-3a13.77,13.77,0,0,0,2.37.2,28.27,28.27,0,0,0,11.1-2.79,31.41,31.41,0,0,0,8.91-5.78A14.52,14.52,0,0,0,111.83,91.76ZM84.39,122.89a1,1,0,0,0,0,1.37,4.06,4.06,0,0,1-5.84,5.63,4,4,0,0,1-1.17-2.7,1,1,0,0,0-1-1,4,4,0,0,1-3.89-4,4,4,0,0,1,1.19-2.87,4.12,4.12,0,0,1,2.88-1.14,4,4,0,0,1,2.75,1,1,1,0,0,0,1.38,0l3-3a10.29,10.29,0,0,0,3.69,3.7Zm26-12c-3.78,3.79-12.35,8-18.6,8a11,11,0,0,1-2.39-.25A8.27,8.27,0,0,1,85,114.17c-1.46-6.25,3.6-16.87,7.74-21a12.51,12.51,0,0,1,17.69,17.69Z"/><path class="cls-4" d="M110.85,98a1,1,0,1,0-1.74,1s2.71,5.21-4.35,10.26a1,1,0,0,0-.24,1.38,1,1,0,0,0,.81.42,1,1,0,0,0,.58-.19c4.36-3.12,5.5-6.4,5.68-8.6A8.08,8.08,0,0,0,110.85,98Z"/><path class="cls-3" d="M68.45,32.76a4.21,4.21,0,0,0-4-.07c-2,1-2,2.6-1.53,3.59a1.8,1.8,0,0,0,1.26,1,7.08,7.08,0,0,0,2.86-.06,12.71,12.71,0,0,1,4.88,0,5.89,5.89,0,0,1,3.67,3.22c1.89,3.76.46,7.69-3.53,9.69a8.87,8.87,0,0,1-8.47-.3l1.28-3.58a5.06,5.06,0,0,0,5.34.55,3,3,0,0,0,1.64-4.16,2.5,2.5,0,0,0-1.62-1.35,9.82,9.82,0,0,0-3.69.07,10.47,10.47,0,0,1-4.05-.06,5,5,0,0,1-3.33-2.82c-1.42-2.83-.93-6.62,3.35-8.77a8.31,8.31,0,0,1,6.59-.48Z"/><path class="cls-3" d="M81.79,26.31l5.7,17-4,1.34-5.7-17-4.6,1.54-1.15-3.43,13.18-4.41,1.15,3.43Z"/><path class="cls-3" d="M104.48,34.9,95.9,36.37l-1.11,4.79-4.5.77L95.8,19.1l3.25-.56,12.53,19.74-4.46.76Zm-1.79-3.17L98.35,24.6l-1.72,8.17Z"/><path class="cls-3" d="M123.4,27.14l9.89.31v.26c0,1.46-.38,6-3.44,8.82a10.34,10.34,0,0,1-7.75,2.61A10.45,10.45,0,0,1,114.36,36a11.59,11.59,0,0,1-2.94-8.41,11,11,0,0,1,3.42-7.92,11.52,11.52,0,0,1,8.6-3,10.47,10.47,0,0,1,4.94,1.29A10.08,10.08,0,0,1,132.3,22l-3.72,1.85a5.88,5.88,0,0,0-2.44-2.63,7,7,0,0,0-3-.77,7.32,7.32,0,0,0-5,1.75,8,8,0,0,0-2.34,5.62,7.32,7.32,0,0,0,2,5.53,6.62,6.62,0,0,0,4.73,2,7.12,7.12,0,0,0,4.27-1.16,5.73,5.73,0,0,0,2.14-3.23l-5.56-.18Z"/><path class="cls-3" d="M151.3,24.88l-7.58-1.67-1,4.71,7.27,1.6-.78,3.53-7.26-1.59-1.27,5.75,7.58,1.66-.77,3.54-11.69-2.57,4.63-21.07,11.69,2.57Z"/><path class="cls-3" d="M164.45,41.15c.54-.24,4.05-1.76,5.25-2.48a6.77,6.77,0,0,0,2.63-2.58,3.13,3.13,0,0,0-1.49-4.32,3.44,3.44,0,0,0-4.64,1.77l-3.91-1.86a7.19,7.19,0,0,1,9.92-3.27c4.53,2.15,5.4,6.36,3.93,9.45s-4.47,4.22-6.77,5.13l-5.09,2.06,7,3.34-1.56,3.27L155.63,45Z"/><path class="cls-3" d="M33,202.19l-18,11.93-2.33-3.51,18-11.92Z"/><path class="cls-3" d="M18.9,220l15.94-14.51,2,2.15L35,227.06l10.64-9.68,2.83,3.1L32.52,235l-2-2.15,1.83-19.42-10.67,9.71Z"/><path class="cls-3" d="M60.56,233.7l-10,14.91-3.49-2.34,10-14.91-4-2.7,2-3,11.55,7.74-2,3Z"/><path class="cls-3" d="M68.13,243.54l8.31,3.77,3.44-7.6,3.83,1.74L74.8,261.09,71,259.35l4-8.74-8.31-3.77-4,8.75-3.82-1.74,8.91-19.64,3.83,1.73Z"/><path class="cls-3" d="M97.87,248.88l-7.51-1.94-1.21,4.67,7.21,1.86-.91,3.5-7.2-1.86-1.47,5.7,7.51,1.94-.9,3.51-11.59-3,5.4-20.89,11.58,3Z"/><path class="cls-3" d="M112.51,256.08l8.12-8.94,5.3.12L116.59,257l9.35,11.82-5.56-.12-7.45-9.84-.5.48-.2,9.18-4.2-.09.47-21.57,4.21.09Z"/><path class="cls-3" d="M132.15,246.23l2.32,21.45-4.18.45L128,246.68Z"/><path class="cls-3" d="M143.61,247.82l3.8,17.54-4.11.89-3.79-17.54-4.74,1L134,246.2l13.59-2.94.76,3.54Z"/><path class="cls-3" d="M170.12,257.12a11,11,0,0,1-4.56,3.05A11,11,0,0,1,151,253.59a11.27,11.27,0,0,1,.29-9.12,11,11,0,0,1,6.43-5.43,10.79,10.79,0,0,1,5.44-.61l1.71,4.6a6.93,6.93,0,0,0-5.72-.45c-4.06,1.51-5.46,5.83-4.07,9.55a7.14,7.14,0,0,0,9.42,4.36,6.56,6.56,0,0,0,3.91-4Z"/><path class="cls-3" d="M173,241.56l7.79-4.73-4.32-7.13,3.59-2.18L191.25,246l-3.6,2.18-5-8.21-7.79,4.73,5,8.21-3.6,2.18-11.18-18.44,3.59-2.18Z"/><path class="cls-3" d="M194.22,220l-5.85,5.09,3.16,3.64,5.61-4.89,2.38,2.73-5.61,4.89,3.87,4.44,5.85-5.1,2.38,2.73-9,7.86-14.17-16.26,9-7.86Z"/><path class="cls-3" d="M210.82,229l-16.88-13.42,1.81-2.28L215.18,212l-11.26-9,2.62-3.29,16.88,13.43-1.81,2.27-19.46,1.31,11.29,9Z"/></g></g></svg>