<svg xmlns="http://www.w3.org/2000/svg" viewBox="0 0 136 137.66"><g id="Layer_2" data-name="Layer 2"><g id="Layer_1-2" data-name="Layer 1"><path d="M129.25,14l-2.32.93A43,43,0,0,1,111.2,17.6h0c-1.65,0-3.4-.07-5.22-.22a69.41,69.41,0,0,1-14.56-2.83c-1.31-.4-2.58-.83-3.79-1.27C80.14,10.5,73.88,6.6,70,2.29L67.94,0l-1.4,1.71L66,2.29c-3.89,4.31-10.16,8.21-17.64,11-1.2.44-2.47.87-3.79,1.27A70.05,70.05,0,0,1,30,17.38c-1.81.15-3.54.22-5.18.22H24.8A42.91,42.91,0,0,1,9.07,14.93L6.75,14,0,31.17,1.6,32l.45.23h0l-.13,0,.15,0a15.5,15.5,0,0,1,4.32,3.6,17.57,17.57,0,0,1,4.1,11.65v.13c0,.69,0,1.4,0,2.16A146.11,146.11,0,0,1,8.94,65.26,122.27,122.27,0,0,0,7.48,81.49a42.84,42.84,0,0,0,1.86,13.1c.31,1,.66,1.93,1,2.83A40.83,40.83,0,0,0,18,109.3c1.15,1.29,2.41,2.56,3.75,3.8s2.62,2.32,4,3.36l.32.24a48.68,48.68,0,0,0,10.71,6.1,79.81,79.81,0,0,0,9.8,3.21l.78.22c6.92,1.9,12.9,3.55,18.79,9.41l.5.49,1.3,1.53,2-2c5.89-5.86,11.87-7.51,18.79-9.41l.78-.22c8.46-2.33,16.17-4.91,24.81-12.91,1.34-1.24,2.6-2.52,3.75-3.8a40.83,40.83,0,0,0,7.59-11.88c.37-.9.72-1.86,1-2.83a43.2,43.2,0,0,0,1.86-13.1,122,122,0,0,0-1.46-16.22,146.3,146.3,0,0,1-1.53-15.54c0-.73,0-1.46,0-2.16a.15.15,0,0,1,0-.07v0a17.51,17.51,0,0,1,4.3-11.89,17.22,17.22,0,0,1,2.94-2.64c.41-.28.73-.48.93-.59h0l.21-.12,2.11-1ZM2.06,32.18l0,0,0,0Zm128.47-2.41A20.87,20.87,0,0,0,126.92,33a21.19,21.19,0,0,0-5.27,14.41v.15c0,.74,0,1.5,0,2.27a151,151,0,0,0,1.56,15.94,118,118,0,0,1,1.43,15.71A39.37,39.37,0,0,1,123,93.43c-.28.87-.59,1.73-.92,2.53a37,37,0,0,1-6.9,10.77,48.36,48.36,0,0,1-3.49,3.54c-8.66,8-16.74,10.24-23.23,12l-.77.22c-6.85,1.88-13.33,3.67-19.68,9.62-6.35-5.95-12.84-7.74-19.68-9.62l-.77-.22c-6.63-1.82-12.65-3.74-19.22-8.67l-.31-.24c-1.26-1-2.5-2-3.7-3.12s-2.42-2.34-3.49-3.53A37.13,37.13,0,0,1,13.93,96c-.33-.8-.64-1.66-.92-2.53a39.06,39.06,0,0,1-1.68-11.94,118,118,0,0,1,1.43-15.71,151.28,151.28,0,0,0,1.56-15.94c0-.8,0-1.54,0-2.27v-.14a21.26,21.26,0,0,0-5-14.13,20.56,20.56,0,0,0-4.48-3.94L8.93,19a47.29,47.29,0,0,0,15.86,2.46h.06c1.74,0,3.59-.08,5.5-.24a73.53,73.53,0,0,0,15.36-3c1.39-.43,2.74-.88,4-1.35C57.37,14.05,63.66,10.22,68,5.8c4.35,4.43,10.64,8.25,18.28,11.09,1.28.47,2.63.92,4,1.35a73.66,73.66,0,0,0,15.36,3c1.91.16,3.76.24,5.49.24h.06A47.31,47.31,0,0,0,127.07,19l4.08,10.37-.62.41"/><polygon points="70.76 25.98 68 17.5 65.25 25.98 56.33 25.98 63.54 31.22 60.79 39.7 68 34.46 75.21 39.7 72.46 31.22 79.67 25.98 70.76 25.98"/><polygon points="47.73 27.99 45.37 20.75 43.02 27.99 35.41 27.99 41.57 32.46 39.22 39.7 45.37 35.23 51.53 39.7 49.18 32.46 55.34 27.99 47.73 27.99"/><polygon points="92.98 27.99 90.63 20.75 88.28 27.99 80.66 27.99 86.82 32.46 84.47 39.7 90.63 35.23 96.79 39.7 94.43 32.46 100.59 27.99 92.98 27.99"/><polygon points="109.69 25.22 107.89 30.75 102.07 30.75 106.78 34.17 104.98 39.7 109.69 36.28 114.39 39.7 112.59 34.17 117.3 30.75 111.48 30.75 109.69 25.22"/><polygon points="28.11 30.75 26.32 25.22 24.52 30.75 18.7 30.75 23.41 34.17 21.61 39.7 26.32 36.28 31.02 39.7 29.22 34.17 33.93 30.75 28.11 30.75"/><polygon points="30.47 91.65 32.01 91.65 32.01 65.42 30.47 65.42 30.47 57.13 40.29 57.13 40.29 65.42 38.67 65.42 38.67 91.65 42.72 91.65 42.72 83.55 46.84 83.55 46.84 99.94 30.47 99.94 30.47 91.65"/><path d="M47.52,91.65h1.29l3.24-26.22H50.66v-8.3H63v8.3H61.64l3.29,26.22h1.26v8.29h-9V92.69H58.7l-.65-6.31H53.64l-.73,6.31h1.42v7.25H47.52Zm9.87-11.59L56,66.09H55.9l-1.57,14Z"/><path d="M67.58,91.65h1.67V65.42H67.58V57.13H79.17c5.44,0,7.54,6.08,7.54,14.55,0,6.09-1.24,13.06-6.83,13.06h-4v6.91h1.72v8.29h-10Zm10.15-17c1.37,0,2-1.64,2-4.61s-.55-4.68-2.22-4.68H75.91v9.29Z"/><path d="M88.28,91.65h1.34V65.35H88.28V57.13H96.5c3.12,0,5.06.6,7,3.5,2.91,4.3,4.35,9.48,4.35,18.17,0,8.84-1.46,13.94-3.87,17.5s-4.37,3.64-7.49,3.64H88.28Zm9,0c2.41,0,3.39-4.38,3.39-13.07,0-9.59-1-13.15-3.39-13.15h-1V91.65Z"/></g></g></svg>